<?xml version="1.0" standalone="no"?>
<!DOCTYPE svg PUBLIC "-//W3C//DTD SVG 20010904//EN"
 "http://www.w3.org/TR/2001/REC-SVG-20010904/DTD/svg10.dtd">
<svg version="1.0" xmlns="http://www.w3.org/2000/svg"
 width="687.000000pt" height="687.000000pt" viewBox="0 0 687.000000 687.000000"
 preserveAspectRatio="xMidYMid meet">
<metadata>
Created by potrace 1.11, written by Peter Selinger 2001-2013
</metadata>
<g transform="translate(0.000000,687.000000) scale(0.100000,-0.100000)"
fill="#000000" stroke="none">
<path d="M3493 6020 c-25 -10 -45 -43 -38 -62 4 -10 -24 -12 -145 -10 l-150 3
0 -55 0 -56 -197 -3 -198 -2 203 -3 202 -2 0 55 0 55 138 0 137 0 17 -30 c30
-53 108 -49 133 8 l10 22 297 0 298 0 0 -45 0 -45 148 2 147 2 -142 3 -143 4
0 44 0 45 -302 0 c-179 0 -309 -4 -318 -10 -8 -5 -11 -10 -7 -10 4 0 3 -9 -3
-21 -7 -11 -14 -18 -17 -15 -3 3 -1 11 4 18 6 7 8 21 4 30 -6 17 -7 16 -18 -2
-11 -16 -10 -18 2 -14 11 5 12 2 2 -19 -13 -28 -27 -29 -57 -2 -15 14 -20 15
-20 4 0 -11 -2 -11 -10 1 -15 23 -12 28 15 22 15 -2 25 0 25 8 0 7 -8 9 -19 5
-24 -7 -34 17 -16 42 10 14 25 19 56 19 43 -1 67 -20 29 -23 -13 -1 -18 2 -14
9 5 7 2 8 -7 2 -21 -13 -39 -14 -39 -1 0 7 -5 5 -10 -3 -5 -8 -9 -22 -9 -30 0
-10 3 -8 9 5 5 11 9 14 9 7 1 -10 6 -10 21 -2 17 9 20 8 20 -7 1 -17 1 -17 11
0 8 14 14 16 25 6 8 -6 17 -9 20 -6 11 10 -17 48 -42 57 -29 12 -32 12 -61 0z
m12 -130 c3 -6 -1 -7 -9 -4 -18 7 -21 14 -7 14 6 0 13 -4 16 -10z"/>
<path d="M3517 5909 c7 -7 15 -10 18 -7 3 3 -2 9 -12 12 -14 6 -15 5 -6 -5z"/>
<path d="M4681 5856 c4 -5 356 -145 479 -192 36 -14 60 -21 55 -16 -11 10
-517 212 -530 212 -5 0 -6 -2 -4 -4z"/>
<path d="M2500 5833 c-8 -2 -24 -8 -35 -13 -11 -5 -143 -55 -294 -110 -197
-74 -280 -100 -300 -96 -24 6 -24 5 -6 -6 11 -6 23 -16 27 -22 6 -8 8 -8 8 0
0 6 19 18 43 27 634 236 608 226 587 226 -8 -1 -22 -3 -30 -6z"/>
<path d="M4276 5659 c-14 -11 -26 -28 -25 -37 0 -13 3 -11 9 5 31 78 152 34
124 -45 -18 -52 -96 -61 -120 -14 -16 31 -24 38 -17 14 7 -27 32 -49 65 -57
22 -6 33 -1 58 23 37 37 39 74 5 107 -30 30 -64 32 -99 4z"/>
<path d="M1797 5614 c-17 -9 -30 -26 -34 -45 -5 -24 -23 -40 -112 -95 -58 -36
-127 -79 -154 -96 l-47 -30 -31 26 c-17 14 -39 26 -49 26 -67 0 -112 -75 -78
-130 11 -18 0 -32 -117 -152 -72 -73 -169 -173 -215 -222 -47 -48 -94 -92
-105 -96 -20 -9 -20 -9 0 -9 14 -1 89 71 235 224 l215 225 42 -6 c38 -6 46 -3
73 24 16 17 30 41 30 54 0 19 28 40 155 119 l154 97 22 -24 c12 -13 30 -24 38
-23 11 0 10 3 -4 9 -56 22 -59 81 -6 117 38 26 31 30 -12 7z m-379 -251 c25
-25 25 -27 7 -34 -20 -7 -20 -8 0 -8 11 -1 16 -5 10 -9 -5 -4 -10 -16 -10 -27
0 -24 -49 -50 -73 -39 -9 4 -21 6 -26 5 -13 -3 -35 32 -36 57 -1 73 77 106
128 55z"/>
<path d="M1320 5360 c-9 -6 -10 -10 -3 -10 6 0 15 5 18 10 8 12 4 12 -15 0z"/>
<path d="M1400 5361 c0 -6 4 -13 10 -16 6 -3 7 1 4 9 -7 18 -14 21 -14 7z"/>
<path d="M1300 5325 c0 -8 2 -15 4 -15 2 0 6 7 10 15 3 8 1 15 -4 15 -6 0 -10
-7 -10 -15z"/>
<path d="M1300 5286 c0 -2 7 -7 16 -10 8 -3 12 -2 9 4 -6 10 -25 14 -25 6z"/>
<path d="M1894 5537 c-5 -18 -20 -37 -34 -44 -17 -9 -20 -13 -8 -13 22 0 46
25 54 56 10 37 -1 38 -12 1z"/>
<path d="M5492 5545 c3 -3 63 -25 134 -49 124 -41 129 -44 135 -74 10 -50 27
-64 72 -60 38 4 46 -2 271 -190 127 -107 238 -196 246 -198 11 -4 14 -16 12
-49 -3 -34 1 -48 18 -65 19 -19 30 -22 71 -17 l49 6 1 -32 c0 -18 19 -169 42
-336 l42 -304 35 -12 c19 -6 41 -23 47 -36 9 -17 13 -19 13 -7 0 20 -46 58
-70 58 -14 0 -19 12 -24 63 -4 34 -23 179 -42 322 -20 143 -36 288 -35 323 0
85 -20 107 -92 99 l-50 -6 -96 82 c-162 139 -199 168 -213 165 -7 -2 -12 2
-11 9 1 6 -4 17 -12 23 -8 7 -15 11 -15 8 0 -2 -25 20 -57 49 -31 29 -60 53
-65 53 -6 0 -7 17 -3 40 6 34 3 43 -19 65 -29 29 -63 30 -94 2 -17 -16 -25
-14 -152 28 -137 46 -147 49 -138 40z m372 -77 c-3 -4 -1 -8 4 -8 6 0 9 -15 7
-32 -1 -18 2 -42 7 -53 8 -18 8 -18 -4 -3 -9 11 -19 13 -29 8 -23 -13 -57 -1
-66 24 -11 33 -9 50 7 63 16 14 82 14 74 1z m57 -125 c13 -16 12 -17 -3 -4
-10 7 -18 15 -18 17 0 8 8 3 21 -13z m170 -140 c13 -16 12 -17 -3 -4 -10 7
-18 15 -18 17 0 8 8 3 21 -13z m65 -55 l29 -33 -32 29 c-31 28 -38 36 -30 36
2 0 16 -15 33 -32z m59 -48 c10 -11 16 -20 13 -20 -3 0 -13 9 -23 20 -10 11
-16 20 -13 20 3 0 13 -9 23 -20z m61 -52 l29 -33 -32 29 c-18 17 -33 31 -33
33 0 8 8 1 36 -29z"/>
<path d="M1983 5030 c-41 -25 -62 -56 -64 -100 -4 -64 29 -118 81 -135 26 -8
25 -17 -6 -46 -34 -31 -74 -115 -74 -154 1 -16 7 -39 15 -49 21 -28 19 -46
-11 -89 -37 -55 -23 -56 31 -3 43 43 49 46 100 46 29 0 87 -5 129 -10 74 -11
76 -11 150 23 81 38 105 64 113 126 5 36 2 43 -42 90 -50 54 -111 83 -198 96
-48 7 -48 8 -40 39 33 133 -76 232 -184 166z"/>
<path d="M4420 5032 c-21 -17 -144 -338 -239 -622 -46 -135 -125 -431 -151
-563 -11 -55 -13 -58 -29 -43 -51 46 -128 -16 -99 -79 12 -27 46 -41 79 -32
18 5 19 2 15 -21 -15 -71 -36 -253 -46 -397 -7 -110 -15 -167 -26 -183 -18
-27 -130 -112 -149 -112 -15 0 -37 26 -53 63 -17 39 -15 264 3 435 23 217 22
271 -6 327 -61 122 -126 150 -264 115 -97 -25 -174 -69 -228 -132 -52 -60
-142 -204 -208 -335 -29 -57 -55 -103 -60 -103 -11 0 -10 410 1 534 l11 111
-33 28 c-61 52 -86 60 -157 54 -37 -3 -92 -14 -124 -24 l-58 -18 -3 -80 c-4
-68 -14 -107 -69 -260 -36 -99 -83 -218 -105 -265 -22 -47 -56 -119 -74 -160
-39 -85 -165 -286 -234 -374 -52 -66 -51 -67 -83 34 -44 140 -55 445 -21 587
26 109 85 283 122 360 17 34 50 85 74 113 79 93 80 114 7 154 -39 22 -58 26
-131 26 -46 0 -102 -4 -123 -10 -124 -32 -108 -18 -171 -153 -74 -157 -130
-305 -174 -465 -91 -323 -95 -523 -14 -663 36 -61 137 -169 190 -203 95 -61
231 -76 330 -36 50 20 53 20 37 2 -25 -28 -22 -78 8 -107 13 -14 31 -25 40
-25 24 0 72 27 79 45 22 58 -21 121 -77 112 -27 -4 -29 -3 -13 7 11 6 47 29
80 52 112 74 224 265 290 494 8 31 22 65 30 75 14 19 16 18 35 -25 11 -25 29
-83 41 -130 33 -128 57 -198 79 -229 12 -16 52 -50 90 -76 l70 -48 66 7 c36 4
76 11 89 15 28 11 55 66 111 231 55 160 96 262 150 375 24 50 48 109 54 132 6
22 18 46 26 53 30 25 36 -30 24 -219 -6 -98 -9 -222 -7 -277 3 -87 8 -107 36
-164 35 -72 64 -97 164 -138 81 -33 152 -35 195 -4 17 12 47 47 68 77 20 30
40 55 45 55 8 0 14 -38 25 -160 13 -143 38 -289 62 -360 15 -46 26 -103 28
-147 1 -40 8 -79 15 -88 11 -13 8 -15 -18 -15 -17 0 -38 -3 -47 -6 -25 -10
-47 -62 -40 -94 7 -32 32 -59 32 -35 0 8 -4 15 -8 15 -4 0 -6 11 -4 25 1 14
-2 25 -7 25 -5 0 -4 9 2 20 6 11 16 17 22 14 7 -4 8 -3 4 4 -4 7 3 14 18 18
30 7 91 -16 73 -28 -8 -5 -5 -8 8 -8 16 0 17 -2 5 -10 -11 -7 -12 -12 -3 -21
9 -9 7 -16 -10 -31 -12 -11 -16 -17 -9 -13 6 3 12 2 12 -4 0 -5 -15 -12 -32
-16 -18 -3 -135 -40 -260 -81 -214 -71 -229 -75 -250 -60 -35 25 -94 21 -123
-9 -32 -31 -34 -91 -5 -127 l19 -25 -37 -54 c-48 -69 -54 -79 -48 -79 3 0 26
28 51 62 43 59 48 63 87 64 32 0 46 6 64 28 13 15 24 35 24 44 -1 9 -7 3 -14
-14 -18 -40 -29 -47 -79 -47 -49 0 -76 30 -77 84 0 68 74 102 139 63 26 -15
35 -13 257 60 126 42 237 76 246 76 29 0 61 35 60 66 0 26 6 33 56 59 172 91
222 120 214 123 -5 1 -66 -29 -137 -68 -70 -39 -129 -69 -132 -66 -2 2 1 22 7
45 13 48 6 84 -25 131 -36 54 -36 74 0 78 36 4 110 37 135 60 23 22 40 56 40
80 0 10 6 32 14 48 24 46 35 143 46 389 10 231 17 302 30 310 4 2 25 -10 46
-28 88 -74 277 -217 287 -217 6 0 18 -7 26 -15 9 -7 64 -34 121 -59 64 -28
104 -51 102 -58 -2 -7 -33 -84 -70 -170 l-67 -157 -46 1 c-71 2 -108 -33 -109
-102 0 -18 -14 -35 -53 -63 -59 -43 -135 -106 -127 -107 3 0 43 29 90 64 l83
64 32 -34 c25 -26 40 -34 68 -34 100 0 149 90 94 171 l-24 35 75 171 c74 171
74 171 101 163 15 -4 55 -11 89 -15 58 -6 62 -6 62 13 0 25 18 32 85 32 60 0
66 7 54 60 -9 43 -48 76 -143 127 l-71 37 32 8 c32 8 73 50 73 74 0 26 18 14
37 -23 38 -78 146 -77 178 2 13 31 20 35 50 35 l35 0 0 65 0 65 43 0 c36 -1
45 -5 62 -33 28 -45 83 -50 114 -11 11 15 21 32 21 39 0 10 177 105 195 105 2
0 49 22 105 49 55 27 102 45 105 40 4 -5 24 -9 46 -9 53 0 79 27 79 83 1 39
11 55 151 232 83 105 156 191 164 193 7 2 16 -2 20 -7 18 -29 106 2 104 37 0
14 -2 14 -6 2 -14 -38 -71 -52 -105 -26 -22 16 -23 64 -2 96 l16 25 -21 -24
c-12 -13 -21 -37 -21 -55 0 -34 -26 -72 -197 -284 -45 -57 -89 -112 -97 -124
-14 -19 -16 -19 -37 -4 -30 21 -62 20 -86 -1 -10 -10 -14 -15 -9 -10 16 12 94
8 103 -5 10 -18 12 -83 2 -100 -12 -19 -97 -17 -110 2 -5 8 -8 30 -6 48 1 17
-1 32 -5 32 -8 0 -12 -24 -8 -50 1 -8 3 -21 4 -28 0 -7 -37 -30 -84 -51 -47
-21 -123 -56 -170 -78 -122 -58 -124 -58 -154 -28 -37 37 -83 32 -111 -12 -18
-29 -25 -32 -67 -33 l-48 0 0 -65 0 -65 -30 0 c-25 0 -32 6 -45 35 -10 25 -25
40 -50 51 -34 14 -41 13 -91 -4 -32 -11 -50 -22 -45 -28 12 -12 -6 -57 -19
-49 -5 3 -10 12 -10 19 0 26 -41 65 -74 72 -79 14 -135 -61 -103 -139 l16 -37
-151 76 c-166 83 -228 119 -228 134 0 5 23 35 51 67 60 68 148 200 248 373 40
69 95 148 122 175 32 33 49 59 49 75 0 78 -141 177 -222 157 -14 -4 -37 -29
-58 -64 -18 -32 -38 -62 -42 -68 -19 -23 -107 -164 -134 -215 -15 -30 -54 -93
-85 -140 -104 -156 -159 -243 -159 -253 0 -8 -3 -8 -10 -1 -7 7 -2 48 15 127
14 64 25 129 25 144 0 16 19 100 41 188 23 88 45 181 49 207 12 67 74 295 126
465 25 81 48 173 51 203 4 50 2 59 -26 97 -38 52 -101 99 -144 108 -18 4 -36
11 -42 15 -24 17 -45 18 -65 2z m1261 -1623 c15 -15 19 -28 15 -52 -6 -41 -32
-60 -71 -52 -40 7 -58 32 -50 70 10 55 67 73 106 34z m-3438 -760 c28 -15 37
-28 37 -55 0 -33 -32 -66 -63 -66 -60 0 -89 70 -47 112 23 23 42 25 73 9z
m2578 -135 c18 -19 24 -37 24 -69 0 -50 -22 -81 -66 -90 -89 -20 -148 61 -104
145 17 33 27 38 81 39 31 1 46 -5 65 -25z"/>
<path d="M5604 3406 c-6 -6 -8 -18 -6 -25 3 -8 0 -11 -6 -7 -6 4 -8 -2 -5 -14
3 -11 10 -20 15 -20 5 0 6 -6 2 -12 -4 -7 -4 -10 1 -6 4 4 14 3 22 -3 9 -8 17
-8 26 0 8 6 18 7 22 3 5 -4 5 -1 1 6 -4 7 -2 19 4 27 15 18 3 38 -17 30 -13
-5 -14 -3 -3 10 7 9 9 15 4 14 -5 -1 -11 0 -14 1 -19 7 -37 6 -46 -4z"/>
<path d="M799 4773 c-13 -17 -13 -17 6 -3 11 8 22 16 24 17 2 2 0 3 -6 3 -6 0
-17 -8 -24 -17z"/>
<path d="M905 4770 c10 -11 20 -20 23 -20 3 0 -3 9 -13 20 -10 11 -20 20 -23
20 -3 0 3 -9 13 -20z"/>
<path d="M796 4642 c-12 -19 -86 -215 -83 -218 2 -2 23 44 47 104 24 59 49
110 54 114 8 5 7 8 -1 8 -6 0 -14 -3 -17 -8z"/>
<path d="M645 4270 c-32 -77 -55 -143 -52 -146 2 -3 30 59 61 137 31 78 54
144 52 146 -2 2 -29 -60 -61 -137z"/>
<path d="M507 4079 c-35 -50 28 -115 73 -74 22 20 27 64 8 83 -19 19 -65 14
-81 -9z"/>
<path d="M498 3834 c-77 -366 -119 -577 -116 -586 2 -6 18 59 35 143 18 85 50
242 73 349 22 107 39 201 38 209 -2 8 -15 -44 -30 -115z"/>
<path d="M1051 3474 c-26 -33 -26 -55 -3 -82 27 -31 55 -35 85 -11 36 28 36
70 1 98 -36 28 -58 26 -83 -5z"/>
<path d="M372 3205 c0 -16 2 -22 5 -12 2 9 2 23 0 30 -3 6 -5 -1 -5 -18z"/>
<path d="M344 2811 c17 -88 32 -158 35 -156 6 6 -51 315 -59 315 -3 0 7 -72
24 -159z"/>
<path d="M2530 2832 c-49 -15 -68 -83 -32 -115 40 -36 112 -6 112 46 0 44 -42
81 -80 69z"/>
<path d="M3373 2780 c-48 -19 -58 -95 -18 -135 61 -62 159 2 130 85 -17 50
-61 70 -112 50z"/>
<path d="M381 2626 c-1 -20 86 -493 94 -511 12 -27 -7 101 -44 290 -47 242
-48 247 -50 221z"/>
<path d="M1721 2458 c2 -2 18 -14 34 -28 l30 -25 -24 28 c-14 15 -29 27 -34
27 -6 0 -8 -1 -6 -2z"/>
<path d="M1730 2290 c-9 -6 -10 -10 -3 -10 6 0 15 5 18 10 8 12 4 12 -15 0z"/>
<path d="M2712 2013 c-24 -9 -44 -64 -37 -99 13 -71 87 -97 142 -50 61 52 20
157 -60 155 -18 0 -38 -3 -45 -6z m33 -17 c-18 -13 -18 -14 8 -9 15 3 24 9 21
14 -6 11 -1 11 21 3 20 -8 45 -55 41 -80 -2 -10 -5 -17 -8 -14 -8 7 -48 -30
-48 -44 0 -6 5 -3 11 7 11 18 29 23 29 7 0 -18 -42 -32 -76 -25 -19 3 -32 10
-29 15 3 4 1 19 -4 32 -5 12 -5 33 0 45 5 13 4 25 -1 28 -10 6 -15 -21 -11
-60 1 -14 -1 -17 -10 -8 -16 16 -2 70 24 88 28 20 59 21 32 1z"/>
<path d="M2790 1987 c0 -3 7 -18 15 -33 11 -21 15 -24 15 -11 0 10 -7 25 -15
33 -8 9 -15 13 -15 11z"/>
<path d="M1294 1955 c-4 -8 -10 -12 -15 -9 -5 3 -6 -3 -2 -12 4 -11 3 -15 -5
-10 -18 11 -4 -58 15 -71 23 -17 44 -16 71 3 30 21 30 77 0 98 -28 20 -57 20
-64 1z m43 -1 c-3 -3 -12 -4 -19 -1 -8 3 -5 6 6 6 11 1 17 -2 13 -5z m23 -83
c0 -5 -7 -12 -16 -15 -14 -5 -15 -4 -4 9 14 17 20 19 20 6z"/>
<path d="M550 1955 c0 -2 53 -48 118 -102 64 -54 164 -138 222 -188 58 -50
121 -102 140 -116 19 -15 77 -63 128 -108 50 -45 92 -78 92 -72 0 10 -32 37
-375 326 -93 78 -201 170 -240 204 -64 55 -85 69 -85 56z"/>
<path d="M3048 1916 c-37 -28 -40 -96 -5 -118 19 -12 59 -10 51 4 -4 7 -3 8 5
4 17 -11 41 12 41 39 0 37 -10 55 -41 70 -33 18 -30 18 -51 1z m27 -26 c1 -10
-2 -17 -6 -14 -4 2 -7 13 -6 24 2 23 10 17 12 -10z"/>
<path d="M3571 1824 c0 -11 3 -14 6 -6 3 7 2 16 -1 19 -3 4 -6 -2 -5 -13z"/>
<path d="M3249 1573 c-13 -16 -12 -17 4 -4 9 7 17 15 17 17 0 8 -8 3 -21 -13z"/>
<path d="M3250 1463 c0 -7 -44 -85 -160 -289 -12 -20 -15 -36 -9 -45 7 -11 9
-10 9 5 0 18 119 236 162 298 11 17 15 29 8 33 -5 3 -10 2 -10 -2z"/>
<path d="M2631 1379 c-35 -38 -21 -82 31 -94 30 -8 68 22 68 53 0 51 -65 77
-99 41z"/>
<path d="M2966 1138 c-9 -12 -16 -32 -15 -43 1 -15 3 -13 9 8 5 16 14 35 21
43 6 8 9 14 6 14 -3 0 -13 -10 -21 -22z"/>
<path d="M3091 1094 c0 -11 3 -14 6 -6 3 7 2 16 -1 19 -3 4 -6 -2 -5 -13z"/>
<path d="M2196 1070 c3 -14 11 -32 16 -40 6 -10 7 -7 2 10 -3 14 -11 32 -16
40 -6 10 -7 7 -2 -10z"/>
<path d="M3080 1062 c0 -6 -12 -18 -27 -26 -16 -8 -23 -15 -17 -16 18 0 60 37
52 46 -5 4 -8 2 -8 -4z"/>
<path d="M2988 1032 c22 -17 23 -22 17 -108 -3 -49 -8 -107 -10 -129 -3 -27
-2 -34 4 -20 5 11 12 72 16 136 l7 115 -29 12 -28 13 23 -19z"/>
<path d="M2221 1005 c0 -5 23 -73 52 -150 l52 -140 40 1 c37 1 38 1 5 -3 -19
-3 -41 -10 -49 -16 -12 -9 -13 -9 -7 1 10 17 -9 15 -23 -2 -30 -35 -32 -135
-4 -129 6 1 19 -8 29 -20 l19 -22 -22 19 c-14 11 -23 14 -23 7 0 -6 15 -19 34
-27 69 -33 153 11 143 75 -3 18 -1 29 4 25 5 -3 7 -10 4 -15 -4 -5 1 -9 9 -9
8 0 17 4 20 9 3 5 25 7 49 5 32 -3 37 -2 22 5 -15 8 -5 9 35 6 37 -3 47 -2 30
4 -17 5 -2 8 50 7 98 -1 198 13 179 25 -10 6 -6 9 16 10 17 0 24 3 17 6 -7 3
-104 -7 -214 -22 -145 -20 -203 -24 -206 -16 -2 6 -7 9 -12 6 -4 -3 -6 3 -3
13 7 28 -41 65 -93 72 l-46 5 -49 130 c-59 156 -57 153 -58 140z m219 -310
c19 -22 8 -25 -12 -3 -10 10 -14 18 -9 18 5 0 14 -7 21 -15z m-153 -47 c-3 -8
-6 -5 -6 6 -1 11 2 17 5 13 3 -3 4 -12 1 -19z m531 5 c-10 -2 -26 -2 -35 0
-10 3 -2 5 17 5 19 0 27 -2 18 -5z m-85 -10 c-7 -2 -19 -2 -25 0 -7 3 -2 5 12
5 14 0 19 -2 13 -5z m-280 -78 c-3 -9 -8 -14 -10 -11 -3 3 -2 9 2 15 9 16 15
13 8 -4z m-60 -42 c-7 -2 -21 -2 -30 0 -10 3 -4 5 12 5 17 0 24 -2 18 -5z"/>
<path d="M3000 745 c-7 -9 -11 -17 -9 -20 3 -2 10 5 17 15 14 24 10 26 -8 5z"/>
</g>
</svg>
